<?xml version="1.0" encoding="UTF-8" standalone="no"?>
<!DOCTYPE svg PUBLIC "-//W3C//DTD SVG 1.1//EN"
 "http://www.w3.org/Graphics/SVG/1.1/DTD/svg11.dtd">
<!-- Generated by graphviz version 2.38.0 (20140413.2041)
 -->
<!-- Title: controllers_diagram Pages: 1 -->
<svg width="762pt" height="544pt"
 viewBox="0.00 0.00 761.69 543.61" xmlns="http://www.w3.org/2000/svg" xmlns:xlink="http://www.w3.org/1999/xlink">
<g id="graph0" class="graph" transform="scale(1 1) rotate(0) translate(298.001 329.5)">
<title>controllers_diagram</title>
<polygon fill="none" stroke="none" points="-298.001,214.112 -298.001,-329.5 463.688,-329.5 463.688,214.112 -298.001,214.112"/>
<!-- _diagram_info -->
<g id="node1" class="node"><title>_diagram_info</title>
<text text-anchor="start" x="260.312" y="-311.1" font-family="Times,serif" font-size="13.00">Controllers diagram</text>
<text text-anchor="start" x="260.312" y="-298.1" font-family="Times,serif" font-size="13.00">Date: Jan 04 2016 &#45; 18:31</text>
<text text-anchor="start" x="260.312" y="-285.1" font-family="Times,serif" font-size="13.00">Migration version: 20160105010514</text>
<text text-anchor="start" x="260.312" y="-272.1" font-family="Times,serif" font-size="13.00">Generated by RailRoady 1.4.2</text>
<text text-anchor="start" x="260.312" y="-259.1" font-family="Times,serif" font-size="13.00">http://railroady.prestonlee.com</text>
</g>
<!-- Api::V1::CustomersController -->
<g id="node2" class="node"><title>Api::V1::CustomersController</title>
<path fill="none" stroke="black" d="M-282.001,161.492C-282.001,161.492 -118.898,161.492 -118.898,161.492 -112.898,161.492 -106.898,155.492 -106.898,149.492 -106.898,149.492 -106.898,69.4924 -106.898,69.4924 -106.898,63.4924 -112.898,57.4924 -118.898,57.4924 -118.898,57.4924 -282.001,57.4924 -282.001,57.4924 -288.001,57.4924 -294.001,63.4924 -294.001,69.4924 -294.001,69.4924 -294.001,149.492 -294.001,149.492 -294.001,155.492 -288.001,161.492 -282.001,161.492"/>
<text text-anchor="middle" x="-200.45" y="72.6924" font-family="Times,serif" font-size="14.00">Api::V1::CustomersController</text>
<polyline fill="none" stroke="black" points="-294.001,79.4924 -106.898,79.4924 "/>
<text text-anchor="start" x="-286.001" y="94.6924" font-family="Times,serif" font-size="14.00">index</text>
<text text-anchor="start" x="-286.001" y="108.692" font-family="Times,serif" font-size="14.00">show</text>
<polyline fill="none" stroke="black" points="-294.001,115.492 -106.898,115.492 "/>
<polyline fill="none" stroke="black" points="-294.001,139.492 -106.898,139.492 "/>
<text text-anchor="start" x="-286.001" y="154.692" font-family="Times,serif" font-size="14.00">_layout</text>
</g>
<!-- Api::V1::InvoiceItemsController -->
<g id="node3" class="node"><title>Api::V1::InvoiceItemsController</title>
<path fill="none" stroke="black" d="M128.55,166.455C128.55,166.455 304.847,166.455 304.847,166.455 310.847,166.455 316.847,160.455 316.847,154.455 316.847,154.455 316.847,74.455 316.847,74.455 316.847,68.455 310.847,62.455 304.847,62.455 304.847,62.455 128.55,62.455 128.55,62.455 122.55,62.455 116.55,68.455 116.55,74.455 116.55,74.455 116.55,154.455 116.55,154.455 116.55,160.455 122.55,166.455 128.55,166.455"/>
<text text-anchor="middle" x="216.698" y="77.655" font-family="Times,serif" font-size="14.00">Api::V1::InvoiceItemsController</text>
<polyline fill="none" stroke="black" points="116.55,84.455 316.847,84.455 "/>
<text text-anchor="start" x="124.55" y="99.655" font-family="Times,serif" font-size="14.00">index</text>
<text text-anchor="start" x="124.55" y="113.655" font-family="Times,serif" font-size="14.00">show</text>
<polyline fill="none" stroke="black" points="116.55,120.455 316.847,120.455 "/>
<polyline fill="none" stroke="black" points="116.55,144.455 316.847,144.455 "/>
<text text-anchor="start" x="124.55" y="159.655" font-family="Times,serif" font-size="14.00">_layout</text>
</g>
<!-- Api::V1::InvoicesController -->
<g id="node4" class="node"><title>Api::V1::InvoicesController</title>
<path fill="none" stroke="black" d="M-71.845,209.612C-71.845,209.612 78.7966,209.612 78.7966,209.612 84.7966,209.612 90.7966,203.612 90.7966,197.612 90.7966,197.612 90.7966,117.612 90.7966,117.612 90.7966,111.612 84.7966,105.612 78.7966,105.612 78.7966,105.612 -71.845,105.612 -71.845,105.612 -77.845,105.612 -83.845,111.612 -83.845,117.612 -83.845,117.612 -83.845,197.612 -83.845,197.612 -83.845,203.612 -77.845,209.612 -71.845,209.612"/>
<text text-anchor="middle" x="3.47584" y="120.812" font-family="Times,serif" font-size="14.00">Api::V1::InvoicesController</text>
<polyline fill="none" stroke="black" points="-83.845,127.612 90.7966,127.612 "/>
<text text-anchor="start" x="-75.845" y="142.812" font-family="Times,serif" font-size="14.00">index</text>
<text text-anchor="start" x="-75.845" y="156.812" font-family="Times,serif" font-size="14.00">show</text>
<polyline fill="none" stroke="black" points="-83.845,163.612 90.7966,163.612 "/>
<polyline fill="none" stroke="black" points="-83.845,187.612 90.7966,187.612 "/>
<text text-anchor="start" x="-75.845" y="202.812" font-family="Times,serif" font-size="14.00">_layout</text>
</g>
<!-- Api::V1::ItemsController -->
<g id="node5" class="node"><title>Api::V1::ItemsController</title>
<path fill="none" stroke="black" d="M-262.406,-81.9338C-262.406,-81.9338 -128.088,-81.9338 -128.088,-81.9338 -122.088,-81.9338 -116.088,-87.9338 -116.088,-93.9338 -116.088,-93.9338 -116.088,-173.934 -116.088,-173.934 -116.088,-179.934 -122.088,-185.934 -128.088,-185.934 -128.088,-185.934 -262.406,-185.934 -262.406,-185.934 -268.406,-185.934 -274.406,-179.934 -274.406,-173.934 -274.406,-173.934 -274.406,-93.9338 -274.406,-93.9338 -274.406,-87.9338 -268.406,-81.9338 -262.406,-81.9338"/>
<text text-anchor="middle" x="-195.247" y="-170.734" font-family="Times,serif" font-size="14.00">Api::V1::ItemsController</text>
<polyline fill="none" stroke="black" points="-274.406,-163.934 -116.088,-163.934 "/>
<text text-anchor="start" x="-266.406" y="-148.734" font-family="Times,serif" font-size="14.00">index</text>
<text text-anchor="start" x="-266.406" y="-134.734" font-family="Times,serif" font-size="14.00">show</text>
<polyline fill="none" stroke="black" points="-274.406,-127.934 -116.088,-127.934 "/>
<polyline fill="none" stroke="black" points="-274.406,-103.934 -116.088,-103.934 "/>
<text text-anchor="start" x="-266.406" y="-88.7338" font-family="Times,serif" font-size="14.00">_layout</text>
</g>
<!-- Api::V1::MerchantsController -->
<g id="node6" class="node"><title>Api::V1::MerchantsController</title>
<path fill="none" stroke="black" d="M140.749,-76.9601C140.749,-76.9601 303.052,-76.9601 303.052,-76.9601 309.052,-76.9601 315.052,-82.9601 315.052,-88.9601 315.052,-88.9601 315.052,-168.96 315.052,-168.96 315.052,-174.96 309.052,-180.96 303.052,-180.96 303.052,-180.96 140.749,-180.96 140.749,-180.96 134.749,-180.96 128.749,-174.96 128.749,-168.96 128.749,-168.96 128.749,-88.9601 128.749,-88.9601 128.749,-82.9601 134.749,-76.9601 140.749,-76.9601"/>
<text text-anchor="middle" x="221.901" y="-165.76" font-family="Times,serif" font-size="14.00">Api::V1::MerchantsController</text>
<polyline fill="none" stroke="black" points="128.749,-158.96 315.052,-158.96 "/>
<text text-anchor="start" x="136.749" y="-143.76" font-family="Times,serif" font-size="14.00">index</text>
<text text-anchor="start" x="136.749" y="-129.76" font-family="Times,serif" font-size="14.00">show</text>
<polyline fill="none" stroke="black" points="128.749,-122.96 315.052,-122.96 "/>
<polyline fill="none" stroke="black" points="128.749,-98.9601 315.052,-98.9601 "/>
<text text-anchor="start" x="136.749" y="-83.7601" font-family="Times,serif" font-size="14.00">_layout</text>
</g>
<!-- Api::V1::TransactionsController -->
<g id="node7" class="node"><title>Api::V1::TransactionsController</title>
<path fill="none" stroke="black" d="M-69.1183,-125.084C-69.1183,-125.084 105.141,-125.084 105.141,-125.084 111.141,-125.084 117.141,-131.084 117.141,-137.084 117.141,-137.084 117.141,-217.084 117.141,-217.084 117.141,-223.084 111.141,-229.084 105.141,-229.084 105.141,-229.084 -69.1183,-229.084 -69.1183,-229.084 -75.1183,-229.084 -81.1183,-223.084 -81.1183,-217.084 -81.1183,-217.084 -81.1183,-137.084 -81.1183,-137.084 -81.1183,-131.084 -75.1183,-125.084 -69.1183,-125.084"/>
<text text-anchor="middle" x="18.0116" y="-213.884" font-family="Times,serif" font-size="14.00">Api::V1::TransactionsController</text>
<polyline fill="none" stroke="black" points="-81.1183,-207.084 117.141,-207.084 "/>
<text text-anchor="start" x="-73.1183" y="-191.884" font-family="Times,serif" font-size="14.00">index</text>
<text text-anchor="start" x="-73.1183" y="-177.884" font-family="Times,serif" font-size="14.00">show</text>
<polyline fill="none" stroke="black" points="-81.1183,-171.084 117.141,-171.084 "/>
<polyline fill="none" stroke="black" points="-81.1183,-147.084 117.141,-147.084 "/>
<text text-anchor="start" x="-73.1183" y="-131.884" font-family="Times,serif" font-size="14.00">_layout</text>
</g>
<!-- ApplicationController -->
<g id="node8" class="node"><title>ApplicationController</title>
<path fill="none" stroke="black" d="M-47.1025,36.2602C-47.1025,36.2602 68.5391,36.2602 68.5391,36.2602 74.5391,36.2602 80.5391,30.2602 80.5391,24.2602 80.5391,24.2602 80.5391,-43.7398 80.5391,-43.7398 80.5391,-49.7398 74.5391,-55.7398 68.5391,-55.7398 68.5391,-55.7398 -47.1025,-55.7398 -47.1025,-55.7398 -53.1025,-55.7398 -59.1025,-49.7398 -59.1025,-43.7398 -59.1025,-43.7398 -59.1025,24.2602 -59.1025,24.2602 -59.1025,30.2602 -53.1025,36.2602 -47.1025,36.2602"/>
<text text-anchor="middle" x="10.7183" y="-40.5398" font-family="Times,serif" font-size="14.00">ApplicationController</text>
<polyline fill="none" stroke="black" points="-59.1025,-33.7398 80.5391,-33.7398 "/>
<polyline fill="none" stroke="black" points="-59.1025,-9.7398 80.5391,-9.7398 "/>
<polyline fill="none" stroke="black" points="-59.1025,14.2602 80.5391,14.2602 "/>
<text text-anchor="start" x="-51.1025" y="29.4602" font-family="Times,serif" font-size="14.00">_layout</text>
</g>
<!-- ApplicationController&#45;&gt;Api::V1::CustomersController -->
<g id="edge1" class="edge"><title>ApplicationController&#45;&gt;Api::V1::CustomersController</title>
<path fill="none" stroke="black" d="M-59.3043,29.7972C-74.9116,38.6096 -91.6928,48.0848 -108.046,57.3181"/>
</g>
<!-- ApplicationController&#45;&gt;Api::V1::InvoiceItemsController -->
<g id="edge2" class="edge"><title>ApplicationController&#45;&gt;Api::V1::InvoiceItemsController</title>
<path fill="none" stroke="black" d="M80.7412,32.4802C96.7193,42.1142 113.881,52.4617 130.449,62.4511"/>
</g>
<!-- ApplicationController&#45;&gt;Api::V1::InvoicesController -->
<g id="edge3" class="edge"><title>ApplicationController&#45;&gt;Api::V1::InvoicesController</title>
<path fill="none" stroke="black" d="M8.72008,36.4328C7.79476,57.8141 6.69118,83.3146 5.73563,105.395"/>
</g>
<!-- ApplicationController&#45;&gt;Api::V1::ItemsController -->
<g id="edge4" class="edge"><title>ApplicationController&#45;&gt;Api::V1::ItemsController</title>
<path fill="none" stroke="black" d="M-59.2996,-51.9595C-77.4924,-62.9295 -97.2195,-74.8247 -115.857,-86.0629"/>
</g>
<!-- ApplicationController&#45;&gt;Api::V1::MerchantsController -->
<g id="edge5" class="edge"><title>ApplicationController&#45;&gt;Api::V1::MerchantsController</title>
<path fill="none" stroke="black" d="M80.7456,-49.2728C96.354,-58.0844 113.136,-67.5586 129.49,-76.791"/>
</g>
<!-- ApplicationController&#45;&gt;Api::V1::TransactionsController -->
<g id="edge6" class="edge"><title>ApplicationController&#45;&gt;Api::V1::TransactionsController</title>
<path fill="none" stroke="black" d="M12.7305,-55.9104C13.6623,-77.2909 14.7737,-102.79 15.7359,-124.869"/>
</g>
</g>
</svg>
