<?xml version="1.0" encoding="UTF-8" standalone="no"?>
<!DOCTYPE svg PUBLIC "-//W3C//DTD SVG 1.1//EN"
 "http://www.w3.org/Graphics/SVG/1.1/DTD/svg11.dtd">
<!-- Generated by graphviz version 2.38.0 (20140413.2041)
 -->
<!-- Title: models_diagram Pages: 1 -->
<svg width="618pt" height="153pt"
 viewBox="0.00 0.00 618.23 153.00" xmlns="http://www.w3.org/2000/svg" xmlns:xlink="http://www.w3.org/1999/xlink">
<g id="graph0" class="graph" transform="scale(1 1) rotate(0) translate(4 149)">
<title>models_diagram</title>
<polygon fill="none" stroke="none" points="-4,4 -4,-149 614.231,-149 614.231,4 -4,4"/>
<!-- _diagram_info -->
<g id="node1" class="node"><title>_diagram_info</title>
<text text-anchor="start" x="8" y="-130.6" font-family="Times,serif" font-size="13.00">Models diagram</text>
<text text-anchor="start" x="8" y="-117.6" font-family="Times,serif" font-size="13.00">Date: Jan 04 2016 &#45; 13:56</text>
<text text-anchor="start" x="8" y="-104.6" font-family="Times,serif" font-size="13.00">Migration version: 20160104204558</text>
<text text-anchor="start" x="8" y="-91.6" font-family="Times,serif" font-size="13.00">Generated by RailRoady 1.4.2</text>
<text text-anchor="start" x="8" y="-78.6" font-family="Times,serif" font-size="13.00">http://railroady.prestonlee.com</text>
</g>
<!-- Customer -->
<g id="node2" class="node"><title>Customer</title>
<ellipse fill="none" stroke="black" cx="51.6877" cy="-18" rx="44.4923" ry="18"/>
<text text-anchor="middle" x="51.6877" y="-13.8" font-family="Times,serif" font-size="14.00">Customer</text>
</g>
<!-- Invoice -->
<g id="node3" class="node"><title>Invoice</title>
<ellipse fill="none" stroke="black" cx="150.688" cy="-18" rx="36.7489" ry="18"/>
<text text-anchor="middle" x="150.688" y="-13.8" font-family="Times,serif" font-size="14.00">Invoice</text>
</g>
<!-- InvoiceItem -->
<g id="node4" class="node"><title>InvoiceItem</title>
<ellipse fill="none" stroke="black" cx="257.688" cy="-18" rx="52.6607" ry="18"/>
<text text-anchor="middle" x="257.688" y="-13.8" font-family="Times,serif" font-size="14.00">InvoiceItem</text>
</g>
<!-- Item -->
<g id="node5" class="node"><title>Item</title>
<ellipse fill="none" stroke="black" cx="355.688" cy="-18" rx="27" ry="18"/>
<text text-anchor="middle" x="355.688" y="-13.8" font-family="Times,serif" font-size="14.00">Item</text>
</g>
<!-- Merchant -->
<g id="node6" class="node"><title>Merchant</title>
<ellipse fill="none" stroke="black" cx="444.688" cy="-18" rx="43.9819" ry="18"/>
<text text-anchor="middle" x="444.688" y="-13.8" font-family="Times,serif" font-size="14.00">Merchant</text>
</g>
<!-- Transaction -->
<g id="node7" class="node"><title>Transaction</title>
<ellipse fill="none" stroke="black" cx="558.688" cy="-18" rx="51.5866" ry="18"/>
<text text-anchor="middle" x="558.688" y="-13.8" font-family="Times,serif" font-size="14.00">Transaction</text>
</g>
<!-- ActiveRecord::Base -->
<g id="node8" class="node"><title>ActiveRecord::Base</title>
<ellipse fill="none" stroke="black" cx="306.688" cy="-108.5" rx="81.1422" ry="18"/>
<text text-anchor="middle" x="306.688" y="-104.3" font-family="Times,serif" font-size="14.00">ActiveRecord::Base</text>
</g>
<!-- ActiveRecord::Base&#45;&gt;Customer -->
<g id="edge1" class="edge"><title>ActiveRecord::Base&#45;&gt;Customer</title>
<path fill="none" stroke="black" d="M269.673,-92.2738C253.496,-85.7823 234.244,-78.2748 216.688,-72 215.085,-71.4272 133.266,-45.1701 85.4632,-29.8342"/>
</g>
<!-- ActiveRecord::Base&#45;&gt;Invoice -->
<g id="edge2" class="edge"><title>ActiveRecord::Base&#45;&gt;Invoice</title>
<path fill="none" stroke="black" d="M278.437,-91.4733C248.409,-74.4379 201.497,-47.8244 173.655,-32.0295"/>
</g>
<!-- ActiveRecord::Base&#45;&gt;InvoiceItem -->
<g id="edge3" class="edge"><title>ActiveRecord::Base&#45;&gt;InvoiceItem</title>
<path fill="none" stroke="black" d="M297.24,-90.4363C288.563,-74.765 275.774,-51.6661 267.106,-36.0113"/>
</g>
<!-- ActiveRecord::Base&#45;&gt;Item -->
<g id="edge4" class="edge"><title>ActiveRecord::Base&#45;&gt;Item</title>
<path fill="none" stroke="black" d="M316.135,-90.4363C324.979,-74.4636 338.095,-50.7749 346.764,-35.1165"/>
</g>
<!-- ActiveRecord::Base&#45;&gt;Merchant -->
<g id="edge5" class="edge"><title>ActiveRecord::Base&#45;&gt;Merchant</title>
<path fill="none" stroke="black" d="M331.999,-91.2677C357.677,-74.8005 397.068,-49.539 421.827,-33.6605"/>
</g>
<!-- ActiveRecord::Base&#45;&gt;Transaction -->
<g id="edge6" class="edge"><title>ActiveRecord::Base&#45;&gt;Transaction</title>
<path fill="none" stroke="black" d="M348.018,-92.9851C396.89,-75.822 477.391,-47.5508 523.44,-31.3787"/>
</g>
</g>
</svg>
