<?xml version="1.0" encoding="UTF-8" standalone="no"?>
<!DOCTYPE svg PUBLIC "-//W3C//DTD SVG 1.1//EN"
 "http://www.w3.org/Graphics/SVG/1.1/DTD/svg11.dtd">
<!-- Generated by graphviz version 2.38.0 (20140413.2041)
 -->
<!-- Title: models_diagram Pages: 1 -->
<svg width="1586pt" height="246pt"
 viewBox="0.00 0.00 1585.72 246.00" xmlns="http://www.w3.org/2000/svg" xmlns:xlink="http://www.w3.org/1999/xlink">
<g id="graph0" class="graph" transform="scale(1 1) rotate(0) translate(4 242)">
<title>models_diagram</title>
<polygon fill="none" stroke="none" points="-4,4 -4,-242 1581.72,-242 1581.72,4 -4,4"/>
<!-- _diagram_info -->
<g id="node1" class="node"><title>_diagram_info</title>
<text text-anchor="start" x="490.175" y="-223.6" font-family="Times,serif" font-size="13.00">Models diagram</text>
<text text-anchor="start" x="490.175" y="-210.6" font-family="Times,serif" font-size="13.00">Date: Jan 04 2016 &#45; 13:56</text>
<text text-anchor="start" x="490.175" y="-197.6" font-family="Times,serif" font-size="13.00">Migration version: 20160104204558</text>
<text text-anchor="start" x="490.175" y="-184.6" font-family="Times,serif" font-size="13.00">Generated by RailRoady 1.4.2</text>
<text text-anchor="start" x="490.175" y="-171.6" font-family="Times,serif" font-size="13.00">http://railroady.prestonlee.com</text>
</g>
<!-- Customer -->
<g id="node2" class="node"><title>Customer</title>
<path fill="none" stroke="black" d="M12,-14.5C12,-14.5 235.725,-14.5 235.725,-14.5 241.725,-14.5 247.725,-20.5 247.725,-26.5 247.725,-26.5 247.725,-102.5 247.725,-102.5 247.725,-108.5 241.725,-114.5 235.725,-114.5 235.725,-114.5 12,-114.5 12,-114.5 6,-114.5 0,-108.5 0,-102.5 0,-102.5 0,-26.5 0,-26.5 0,-20.5 6,-14.5 12,-14.5"/>
<text text-anchor="middle" x="123.862" y="-99.3" font-family="Times,serif" font-size="14.00">Customer</text>
<polyline fill="none" stroke="black" points="0,-92.5 247.725,-92.5 "/>
<text text-anchor="start" x="8" y="-77.3" font-family="Times,serif" font-size="14.00">id :integer</text>
<text text-anchor="start" x="8" y="-63.3" font-family="Times,serif" font-size="14.00">first_name :character varying</text>
<text text-anchor="start" x="8" y="-49.3" font-family="Times,serif" font-size="14.00">last_name :character varying</text>
<text text-anchor="start" x="8" y="-35.3" font-family="Times,serif" font-size="14.00">created_at :timestamp without time zone</text>
<text text-anchor="start" x="8" y="-21.3" font-family="Times,serif" font-size="14.00">updated_at :timestamp without time zone</text>
</g>
<!-- Invoice -->
<g id="node3" class="node"><title>Invoice</title>
<path fill="none" stroke="black" d="M278,-7.5C278,-7.5 501.725,-7.5 501.725,-7.5 507.725,-7.5 513.725,-13.5 513.725,-19.5 513.725,-19.5 513.725,-109.5 513.725,-109.5 513.725,-115.5 507.725,-121.5 501.725,-121.5 501.725,-121.5 278,-121.5 278,-121.5 272,-121.5 266,-115.5 266,-109.5 266,-109.5 266,-19.5 266,-19.5 266,-13.5 272,-7.5 278,-7.5"/>
<text text-anchor="middle" x="389.862" y="-106.3" font-family="Times,serif" font-size="14.00">Invoice</text>
<polyline fill="none" stroke="black" points="266,-99.5 513.725,-99.5 "/>
<text text-anchor="start" x="274" y="-84.3" font-family="Times,serif" font-size="14.00">id :integer</text>
<text text-anchor="start" x="274" y="-70.3" font-family="Times,serif" font-size="14.00">status :character varying</text>
<text text-anchor="start" x="274" y="-56.3" font-family="Times,serif" font-size="14.00">merchant_id :integer</text>
<text text-anchor="start" x="274" y="-42.3" font-family="Times,serif" font-size="14.00">customer_id :integer</text>
<text text-anchor="start" x="274" y="-28.3" font-family="Times,serif" font-size="14.00">created_at :timestamp without time zone</text>
<text text-anchor="start" x="274" y="-14.3" font-family="Times,serif" font-size="14.00">updated_at :timestamp without time zone</text>
</g>
<!-- InvoiceItem -->
<g id="node4" class="node"><title>InvoiceItem</title>
<path fill="none" stroke="black" d="M544,-0.5C544,-0.5 767.725,-0.5 767.725,-0.5 773.725,-0.5 779.725,-6.5 779.725,-12.5 779.725,-12.5 779.725,-116.5 779.725,-116.5 779.725,-122.5 773.725,-128.5 767.725,-128.5 767.725,-128.5 544,-128.5 544,-128.5 538,-128.5 532,-122.5 532,-116.5 532,-116.5 532,-12.5 532,-12.5 532,-6.5 538,-0.5 544,-0.5"/>
<text text-anchor="middle" x="655.862" y="-113.3" font-family="Times,serif" font-size="14.00">InvoiceItem</text>
<polyline fill="none" stroke="black" points="532,-106.5 779.725,-106.5 "/>
<text text-anchor="start" x="540" y="-91.3" font-family="Times,serif" font-size="14.00">id :integer</text>
<text text-anchor="start" x="540" y="-77.3" font-family="Times,serif" font-size="14.00">quantity :integer</text>
<text text-anchor="start" x="540" y="-63.3" font-family="Times,serif" font-size="14.00">unit_price :integer</text>
<text text-anchor="start" x="540" y="-49.3" font-family="Times,serif" font-size="14.00">invoice_id :integer</text>
<text text-anchor="start" x="540" y="-35.3" font-family="Times,serif" font-size="14.00">item_id :integer</text>
<text text-anchor="start" x="540" y="-21.3" font-family="Times,serif" font-size="14.00">created_at :timestamp without time zone</text>
<text text-anchor="start" x="540" y="-7.3" font-family="Times,serif" font-size="14.00">updated_at :timestamp without time zone</text>
</g>
<!-- Item -->
<g id="node5" class="node"><title>Item</title>
<path fill="none" stroke="black" d="M810,-0.5C810,-0.5 1033.72,-0.5 1033.72,-0.5 1039.72,-0.5 1045.72,-6.5 1045.72,-12.5 1045.72,-12.5 1045.72,-116.5 1045.72,-116.5 1045.72,-122.5 1039.72,-128.5 1033.72,-128.5 1033.72,-128.5 810,-128.5 810,-128.5 804,-128.5 798,-122.5 798,-116.5 798,-116.5 798,-12.5 798,-12.5 798,-6.5 804,-0.5 810,-0.5"/>
<text text-anchor="middle" x="921.862" y="-113.3" font-family="Times,serif" font-size="14.00">Item</text>
<polyline fill="none" stroke="black" points="798,-106.5 1045.72,-106.5 "/>
<text text-anchor="start" x="806" y="-91.3" font-family="Times,serif" font-size="14.00">id :integer</text>
<text text-anchor="start" x="806" y="-77.3" font-family="Times,serif" font-size="14.00">name :character varying</text>
<text text-anchor="start" x="806" y="-63.3" font-family="Times,serif" font-size="14.00">description :character varying</text>
<text text-anchor="start" x="806" y="-49.3" font-family="Times,serif" font-size="14.00">unit_price :integer</text>
<text text-anchor="start" x="806" y="-35.3" font-family="Times,serif" font-size="14.00">merchant_id :integer</text>
<text text-anchor="start" x="806" y="-21.3" font-family="Times,serif" font-size="14.00">created_at :timestamp without time zone</text>
<text text-anchor="start" x="806" y="-7.3" font-family="Times,serif" font-size="14.00">updated_at :timestamp without time zone</text>
</g>
<!-- Merchant -->
<g id="node6" class="node"><title>Merchant</title>
<path fill="none" stroke="black" d="M1076,-21.5C1076,-21.5 1299.72,-21.5 1299.72,-21.5 1305.72,-21.5 1311.72,-27.5 1311.72,-33.5 1311.72,-33.5 1311.72,-95.5 1311.72,-95.5 1311.72,-101.5 1305.72,-107.5 1299.72,-107.5 1299.72,-107.5 1076,-107.5 1076,-107.5 1070,-107.5 1064,-101.5 1064,-95.5 1064,-95.5 1064,-33.5 1064,-33.5 1064,-27.5 1070,-21.5 1076,-21.5"/>
<text text-anchor="middle" x="1187.86" y="-92.3" font-family="Times,serif" font-size="14.00">Merchant</text>
<polyline fill="none" stroke="black" points="1064,-85.5 1311.72,-85.5 "/>
<text text-anchor="start" x="1072" y="-70.3" font-family="Times,serif" font-size="14.00">id :integer</text>
<text text-anchor="start" x="1072" y="-56.3" font-family="Times,serif" font-size="14.00">name :character varying</text>
<text text-anchor="start" x="1072" y="-42.3" font-family="Times,serif" font-size="14.00">created_at :timestamp without time zone</text>
<text text-anchor="start" x="1072" y="-28.3" font-family="Times,serif" font-size="14.00">updated_at :timestamp without time zone</text>
</g>
<!-- Transaction -->
<g id="node7" class="node"><title>Transaction</title>
<path fill="none" stroke="black" d="M1342,-0.5C1342,-0.5 1565.72,-0.5 1565.72,-0.5 1571.72,-0.5 1577.72,-6.5 1577.72,-12.5 1577.72,-12.5 1577.72,-116.5 1577.72,-116.5 1577.72,-122.5 1571.72,-128.5 1565.72,-128.5 1565.72,-128.5 1342,-128.5 1342,-128.5 1336,-128.5 1330,-122.5 1330,-116.5 1330,-116.5 1330,-12.5 1330,-12.5 1330,-6.5 1336,-0.5 1342,-0.5"/>
<text text-anchor="middle" x="1453.86" y="-113.3" font-family="Times,serif" font-size="14.00">Transaction</text>
<polyline fill="none" stroke="black" points="1330,-106.5 1577.72,-106.5 "/>
<text text-anchor="start" x="1338" y="-91.3" font-family="Times,serif" font-size="14.00">id :integer</text>
<text text-anchor="start" x="1338" y="-77.3" font-family="Times,serif" font-size="14.00">credit_card_number :integer</text>
<text text-anchor="start" x="1338" y="-63.3" font-family="Times,serif" font-size="14.00">credit_card_expiration_date :date</text>
<text text-anchor="start" x="1338" y="-49.3" font-family="Times,serif" font-size="14.00">result :character varying</text>
<text text-anchor="start" x="1338" y="-35.3" font-family="Times,serif" font-size="14.00">invoice_id :integer</text>
<text text-anchor="start" x="1338" y="-21.3" font-family="Times,serif" font-size="14.00">created_at :timestamp without time zone</text>
<text text-anchor="start" x="1338" y="-7.3" font-family="Times,serif" font-size="14.00">updated_at :timestamp without time zone</text>
</g>
<!-- ActiveRecord::Base -->
<g id="node8" class="node"><title>ActiveRecord::Base</title>
<ellipse fill="none" stroke="black" cx="788.862" cy="-201.5" rx="81.1422" ry="18"/>
<text text-anchor="middle" x="788.862" y="-197.3" font-family="Times,serif" font-size="14.00">ActiveRecord::Base</text>
</g>
<!-- ActiveRecord::Base&#45;&gt;Customer -->
<g id="edge1" class="edge"><title>ActiveRecord::Base&#45;&gt;Customer</title>
<path fill="none" stroke="black" d="M756.271,-184.954C739.497,-177.651 718.494,-169.565 698.862,-165 506.89,-120.357 447.162,-180.308 256.862,-129 243.151,-125.303 229.134,-120.225 215.588,-114.538"/>
</g>
<!-- ActiveRecord::Base&#45;&gt;Invoice -->
<g id="edge2" class="edge"><title>ActiveRecord::Base&#45;&gt;Invoice</title>
<path fill="none" stroke="black" d="M753.882,-185.061C737.421,-178.222 717.379,-170.5 698.862,-165 622.326,-142.266 598.56,-154.388 522.862,-129 516.191,-126.763 509.418,-124.273 502.643,-121.611"/>
</g>
<!-- ActiveRecord::Base&#45;&gt;InvoiceItem -->
<g id="edge3" class="edge"><title>ActiveRecord::Base&#45;&gt;InvoiceItem</title>
<path fill="none" stroke="black" d="M772.287,-183.675C758.499,-169.68 737.964,-148.836 717.962,-128.533"/>
</g>
<!-- ActiveRecord::Base&#45;&gt;Item -->
<g id="edge4" class="edge"><title>ActiveRecord::Base&#45;&gt;Item</title>
<path fill="none" stroke="black" d="M805.438,-183.675C819.226,-169.68 839.761,-148.836 859.763,-128.533"/>
</g>
<!-- ActiveRecord::Base&#45;&gt;Merchant -->
<g id="edge5" class="edge"><title>ActiveRecord::Base&#45;&gt;Merchant</title>
<path fill="none" stroke="black" d="M845.322,-188.486C899.814,-176.156 984.217,-155.11 1054.86,-129 1071.66,-122.791 1089.22,-115.23 1105.86,-107.52"/>
</g>
<!-- ActiveRecord::Base&#45;&gt;Transaction -->
<g id="edge6" class="edge"><title>ActiveRecord::Base&#45;&gt;Transaction</title>
<path fill="none" stroke="black" d="M868.449,-197.515C973.898,-191.829 1164.79,-175.493 1320.86,-129 1323.8,-128.123 1326.76,-127.189 1329.73,-126.206"/>
</g>
</g>
</svg>
